<svg width="120" height="32" viewBox="0 0 120 32" fill="none" xmlns="http://www.w3.org/2000/svg">
  <!-- Logo Redyce - Version complète (texte) -->
  <!-- Icône -->
  <rect width="32" height="32" rx="8" fill="#151959"/>
  <path d="M8 16C8 13.7909 9.79086 12 12 12H20C22.2091 12 24 13.7909 24 16C24 18.2091 22.2091 20 20 20H12C9.79086 20 8 18.2091 8 16Z" fill="#E3E7FF"/>
  <path d="M12 14C10.8954 14 10 14.8954 10 16C10 17.1046 10.8954 18 12 18H20C21.1046 18 22 17.1046 22 16C22 14.8954 21.1046 14 20 14H12Z" fill="#151959"/>
  <circle cx="14" cy="16" r="1.5" fill="#E3E7FF"/>
  <circle cx="18" cy="16" r="1.5" fill="#E3E7FF"/>
  <path d="M16 10V12M16 20V22M10 16H8M24 16H22" stroke="#E3E7FF" stroke-width="1.5" stroke-linecap="round"/>
  
  <!-- Texte Redyce -->
  <text x="40" y="22" font-family="system-ui, -apple-system, sans-serif" font-size="18" font-weight="700" fill="#151959" letter-spacing="-0.5">Redyce</text>
</svg>

